<svg height="512" viewBox="0 0 64 64" width="512" xmlns="http://www.w3.org/2000/svg"><g id="Smartphone-Control-Home-Car-Camera"><path d="m36 26v22a4 4 0 0 1 -4 4h-10a3.822 3.822 0 0 1 -.68-.06 3.99 3.99 0 0 1 -3.32-3.94v-22a4 4 0 0 1 4-4h10a4 4 0 0 1 4 4z" fill="#5aaae7"/><path d="m36 29.11v18.89a4 4 0 0 1 -4 4h-10a3.822 3.822 0 0 1 -.68-.06z" fill="#3d9ae2"/><g fill="#ff9811"><path d="m45 51v10h5 4 5v-10z"/><path d="m19 9.01.01-6-4.01-.01v6 6h3l6 .01h2.99l.01-6z"/><path d="m14 9h-11l-.01 5.99h3.01l6 .01h3v-6z"/></g><path d="m61 7v9a1 1 0 0 1 -1 1h-18a1 1 0 0 1 -1-1v-9a1 1 0 0 1 1-1h3l2-3h8l2 3h3a1 1 0 0 1 1 1z" fill="#acabb1"/><path d="m58 45 3 6h-2-14-2l3-6z" fill="#ff5023"/><path d="m50 55h4v6h-4z" fill="#e6e7e8"/><circle cx="51" cy="10" fill="#e6e7e8" r="3"/><path d="m31.14 46.75a1.861 1.861 0 0 1 -.07.52l-1.27 4.73h-5.56a1.973 1.973 0 0 0 1.81-1.46l1.16-4.3a2 2 0 0 1 3.93.51z" fill="#1e81ce"/><path d="m27 9.01h-8l.01-6z" fill="#e6e7e8"/><path d="m21 12a3 3 0 1 0 3 3.01v-.01a3 3 0 0 0 -3-3z" fill="#787680"/><path d="m15 3v6h-1-11l.01-6.01z" fill="#d1d3d4"/><path d="m9 12a2.994 2.994 0 0 0 -3 2.99v.01a3 3 0 1 0 3-3z" fill="#787680"/><path d="m22.43 51.05-2.43-4.05v-11h-2v12a3.99 3.99 0 0 0 3.32 3.94 3.822 3.822 0 0 0 .68.06h1.98a1.958 1.958 0 0 1 -1.55-.95z" fill="#3d9ae2"/><path d="m27.66 42.82a2 2 0 0 0 -2.45 1.42l-1.16 4.3a1.981 1.981 0 0 1 -1.92 1.47h-.02a1.96 1.96 0 0 1 -1.68-.96l-2.43-4.05v-9a6 6 0 0 0 -6 6v12l1 4v3h12v-2l2-3v-2.21a6.216 6.216 0 0 1 .2-1.55l.06-.24 1.81-6.73a1.861 1.861 0 0 0 .07-.52 2 2 0 0 0 -1.48-1.93z" fill="#ffc477"/><path d="m45 51h14v2h-14z" fill="#ee8700"/><path d="m32 21h-10a5.006 5.006 0 0 0 -5 5v9.08a7.006 7.006 0 0 0 -6 6.92v12a1 1 0 0 0 .03.243l.97 3.88v2.877a1 1 0 0 0 1 1h12a1 1 0 0 0 1-1v-1.7l1.832-2.748a1.006 1.006 0 0 0 .168-.552v-2.21a4.978 4.978 0 0 1 .07-.79h3.93a5.006 5.006 0 0 0 5-5v-22a5.006 5.006 0 0 0 -5-5zm-6 32.79v1.91l-1.832 2.748a1.006 1.006 0 0 0 -.168.552v1h-10v-2a1 1 0 0 0 -.03-.243l-.97-3.88v-11.877a5.008 5.008 0 0 1 4-4.9v7.9a1 1 0 0 0 .143.515l2.429 4.048a3.008 3.008 0 0 0 2.528 1.451 3.05 3.05 0 0 0 2.92-2.214l1.153-4.3a1 1 0 1 1 1.931.517l-1.866 6.964a7.009 7.009 0 0 0 -.238 1.809zm9-5.79a3 3 0 0 1 -3 3h-3.429l1.465-5.468a3 3 0 1 0 -5.8-1.553l-1.153 4.3a.988.988 0 0 1 -.954.732h-.013a.978.978 0 0 1 -.834-.48l-2.282-3.808v-18.723a3 3 0 0 1 3-3h10a3 3 0 0 1 3 3z"/><path d="m26 25h6v2h-6z"/><path d="m22 25h2v2h-2z"/><path d="m26 38h2v2h-2z"/><path d="m23.465 35.464 1.414 1.414a3.074 3.074 0 0 1 4.242 0l1.414-1.414a5 5 0 0 0 -7.07 0z"/><path d="m20.636 32.636 1.414 1.414a7.011 7.011 0 0 1 9.9 0l1.414-1.414a9.01 9.01 0 0 0 -12.728 0z"/><path d="m12.858 16h4.284a3.98 3.98 0 0 0 7.713.01h2.135a1 1 0 0 0 1-1l.01-6a1 1 0 0 0 -.4-.8l-7.991-6a1 1 0 0 0 -.6-.2l-16-.02a1 1 0 0 0 -1 1l-.02 12a1 1 0 0 0 1 1h2.15a3.981 3.981 0 0 0 7.719.01zm8.142 1a2 2 0 1 1 2-2 2 2 0 0 1 -2 2zm3.861-2.99a3.981 3.981 0 0 0 -7.719-.01h-1.142v-9.994h2.008l-.01 5a1 1 0 0 0 1 1h7l-.006 4zm-4.855-9 4 3h-4.006zm-6.006-1.01v4h-10l.006-4.009zm-8.855 9.99h-1.153l.008-3.99h10v4h-1.142a3.98 3.98 0 0 0 -7.713-.01zm3.855 3.01a2 2 0 1 1 2-2 2 2 0 0 1 -2 2z"/><path d="m51 6a4 4 0 1 0 4 4 4 4 0 0 0 -4-4zm0 6a2 2 0 1 1 2-2 2 2 0 0 1 -2 2z"/><path d="m60 5h-2.465l-1.7-2.555a1 1 0 0 0 -.835-.445h-8a1 1 0 0 0 -.832.445l-1.703 2.555h-2.465a2 2 0 0 0 -2 2v9a2 2 0 0 0 2 2h18a2 2 0 0 0 2-2v-9a2 2 0 0 0 -2-2zm0 11h-18v-9h3a1 1 0 0 0 .832-.445l1.703-2.555h6.93l1.7 2.555a1 1 0 0 0 .835.445h3z"/><path d="m58.9 44.553a1 1 0 0 0 -.9-.553h-12a1 1 0 0 0 -.9.553l-3 6a1 1 0 0 0 .9 1.447h1v9a1 1 0 0 0 1 1h14a1 1 0 0 0 1-1v-9h1a1 1 0 0 0 .9-1.447zm-12.282 1.447h10.764l2 4h-14.764zm6.382 14h-2v-4h2zm5 0h-3v-5a1 1 0 0 0 -1-1h-4a1 1 0 0 0 -1 1v5h-3v-8h12z"/><path d="m44.707 28.707 7-7-1.414-1.414-6.707 6.707h-4.586v2h5a1 1 0 0 0 .707-.293z"/><path d="m50.293 41.707 1.414-1.414-7-7a1 1 0 0 0 -.707-.293h-5v2h4.586z"/><path d="m15 32v-2h-3v-9h-2v10a1 1 0 0 0 1 1z"/></g></svg>